<?xml version="1.0" encoding="utf-8"?>
<!-- Generator: Adobe Illustrator 17.0.0, SVG Export Plug-In . SVG Version: 6.00 Build 0)  -->
<!DOCTYPE svg PUBLIC "-//W3C//DTD SVG 1.1//EN" "http://www.w3.org/Graphics/SVG/1.1/DTD/svg11.dtd">
<svg version="1.1" id="Layer_1" xmlns="http://www.w3.org/2000/svg" xmlns:xlink="http://www.w3.org/1999/xlink" x="0px" y="0px"
	 width="129px" height="129.5px" viewBox="0 0 129 129.5" enable-background="new 0 0 129 129.5" xml:space="preserve">
<g>
	<g>
		<g enable-background="new    ">
			<defs>
				<polygon id="SVGID_5_" enable-background="new    " points="9.449,122.847 7.112,6.044 123.299,3.531 125.636,120.334 				"/>
			</defs>
			<clipPath id="SVGID_2_">
				<use xlink:href="#SVGID_5_"  overflow="visible"/>
			</clipPath>
			<g clip-path="url(#SVGID_2_)">
				<g>
					<g>
						<g>
							<g>
								<defs>
									<polyline id="SVGID_7_" points="29.155,122.421 7.527,26.765 103.593,3.957 125.221,99.613 29.155,122.421 									"/>
								</defs>
								<clipPath id="SVGID_4_">
									<use xlink:href="#SVGID_7_"  overflow="visible"/>
								</clipPath>
								<path clip-path="url(#SVGID_4_)" fill="#ED1C24" d="M96.334,7.912c-0.501,0.011-1.007,0.075-1.513,0.195L17.187,26.538
									c-3.56,0.841-5.932,4.22-5.815,7.938c0.017,0.531,0.084,1.069,0.207,1.607l17.22,76.147c0.08,0.353,0.18,0.695,0.3,1.025
									c1.079,2.976,3.722,4.994,6.665,5.202c0.218,0.015,0.438,0.021,0.659,0.016c0.062-0.001,0.125-0.003,0.188-0.006
									c0.438-0.021,0.882-0.082,1.324-0.188l77.634-18.43c3.554-0.841,5.93-4.227,5.814-7.941
									c-0.017-0.53-0.084-1.067-0.206-1.605l-17.22-76.156c-0.017-0.073-0.034-0.146-0.052-0.217
									c-0.158-0.625-0.382-1.215-0.664-1.763c-1.255-2.444-3.636-4.054-6.249-4.239C96.774,7.913,96.556,7.907,96.334,7.912"/>
								<path clip-path="url(#SVGID_4_)" fill="#ED1C24" d="M11.373,34.476c-0.117-3.718,2.254-7.097,5.815-7.938L94.821,8.107
									c0.506-0.121,1.012-0.184,1.513-0.195c0.221-0.005,0.44,0.001,0.658,0.016c2.613,0.185,4.994,1.795,6.249,4.239
									c0.282,0.548,0.506,1.138,0.664,1.763c0.019,0.072,0.036,0.145,0.052,0.217l17.22,76.156
									c0.123,0.538,0.189,1.075,0.206,1.605c0.116,3.714-2.261,7.1-5.814,7.941l-77.634,18.43
									c-0.442,0.106-0.886,0.168-1.324,0.188c-0.063,0.003-0.125,0.005-0.188,0.006c-0.221,0.005-0.44-0.001-0.659-0.016
									c-2.943-0.209-5.587-2.227-6.665-5.202c-0.12-0.33-0.22-0.673-0.3-1.025l-17.22-76.147
									C11.457,35.545,11.39,35.007,11.373,34.476 M96.252,5.907c-0.62,0.014-1.245,0.091-1.871,0.239L16.748,24.576
									c-4.987,1.184-8.106,6.355-7.088,11.621l17.358,76.771c1.161,4.539,5.151,7.591,9.473,7.498
									c0.624-0.013,1.255-0.092,1.886-0.243l77.633-18.43c4.985-1.178,8.116-6.378,7.071-11.65l-17.335-76.667
									C104.601,8.892,100.59,5.813,96.252,5.907"/>
							</g>
						</g>
					</g>
				</g>
			</g>
		</g>
	</g>
</g>
<g>
	<path fill="#FFFFFF" d="M63.246,40.198c-0.437,0.175-0.784,0.218-1.045,0.131c-4.792-1.045-7.187,0.306-7.187,4.05v15.288h6.664
		v6.011c0,2.527-0.372,4.312-1.111,5.357c-0.741,1.045-2.593,1.568-5.553,1.568v37.631c0,0.698,0.131,1.221,0.392,1.567
		c0.261,0.35,0.608,0.654,1.045,0.915c0.697,0.523,1.373,1.264,2.026,2.221c0,0,0.25,0.35,0.283,0.479L37.688,120.5
		c-1.063,0.406-2.535-0.125-2.535-0.125v-1.518c0-1.654,0.327-2.96,0.98-3.92c0.653-0.957,1.327-1.698,2.025-2.221
		c0.435-0.261,0.762-0.523,0.98-0.784c0.216-0.261,0.37-0.696,0.457-1.306V72.603h-6.402v-6.272c0-2.96,0.458-4.812,1.372-5.553
		c0.915-0.739,2.59-1.111,5.03-1.111V42.68c0-2.699,0.588-5.139,1.764-7.317c1.176-2.176,2.787-3.919,4.834-5.226
		c2.046-1.307,4.442-2.156,7.187-2.548c2.744-0.392,5.684-0.239,8.82,0.457c0.347,0.088,0.718,0.262,1.11,0.522
		c0.392,0.261,0.588,0.741,0.588,1.438v9.146C63.899,39.675,63.681,40.024,63.246,40.198z"/>
</g>
<g>
	<path fill="#FFFFFF" d="M99.239,57.256c2.359,0.003,4.413,0.454,6.165,1.35c1.749,0.898,3.196,2.133,4.338,3.707
		c1.14,1.575,1.996,3.454,2.565,5.634c0.568,2.183,0.852,4.524,0.848,7.026l-0.029,19.413c-0.004,2.718-0.533,5.117-1.352,7.291
		c-0.166,0.442-0.306,1.194-1.181,1.448c-0.088,0.025-38.26,9.276-39.536,9.359l0.012-8.938c0.002-1.357,0.271-2.429,0.81-3.216
		c0.537-0.785,1.091-1.393,1.665-1.821c0.357-0.214,0.645-0.463,0.859-0.749c0.215-0.285,0.323-0.786,0.324-1.501l0.078-51.267
		c0.001-0.571-0.105-1.036-0.32-1.395c-0.214-0.357-0.5-0.68-0.857-0.967c-0.573-0.358-1.124-0.93-1.66-1.718
		c-0.536-0.787-0.802-1.788-0.8-3.005l0.011-6.864l13.729,0.021c1.287,0.002,2.394,0.29,3.323,0.863
		c0.927,0.575,1.391,2.004,1.388,4.292l-0.036,23.703c0.929-0.498,1.932-0.925,3.005-1.282c0.929-0.356,1.966-0.676,3.111-0.961
		C96.842,57.396,98.022,57.254,99.239,57.256z M98.352,76.345c0.002-1.287-0.194-2.323-0.585-3.111
		c-0.393-0.787-0.874-1.359-1.446-1.719c-0.572-0.358-1.197-0.573-1.876-0.646c-0.68-0.071-1.305-0.037-1.877,0.105
		c-1.073,0.285-1.861,0.748-2.362,1.39c-0.287,0.286-0.502,0.608-0.645,0.964l-0.036,23.81c0.285,0.287,0.571,0.537,0.857,0.752
		c0.643,0.502,1.501,0.753,2.573,0.754c1.215,0.002,2.414-0.442,3.595-1.335c1.181-0.891,1.772-1.981,1.774-3.269L98.352,76.345z"/>
</g>
</svg>
