<?xml version="1.0" encoding="utf-8"?>
<!-- Generator: Adobe Illustrator 17.0.0, SVG Export Plug-In . SVG Version: 6.00 Build 0)  -->
<!DOCTYPE svg PUBLIC "-//W3C//DTD SVG 1.1//EN" "http://www.w3.org/Graphics/SVG/1.1/DTD/svg11.dtd">
<svg version="1.1" id="Layer_1" xmlns="http://www.w3.org/2000/svg" xmlns:xlink="http://www.w3.org/1999/xlink" x="0px" y="0px"
	 width="129px" height="129.5px" viewBox="0 0 129 129.5" enable-background="new 0 0 129 129.5" xml:space="preserve">
<g>
	<g>
		<g enable-background="new    ">
			<defs>
				<polygon id="SVGID_13_" enable-background="new    " points="4.953,122.964 2.617,6.188 118.796,3.675 121.132,120.451 				"/>
			</defs>
			<clipPath id="SVGID_2_">
				<use xlink:href="#SVGID_13_"  overflow="visible"/>
			</clipPath>
			<g clip-path="url(#SVGID_2_)">
				<g>
					<g>
						<g>
							<g>
								<defs>
									<polyline id="SVGID_15_" points="24.65,122.538 3.031,26.899 99.099,4.101 120.718,99.739 24.65,122.538 									"/>
								</defs>
								<clipPath id="SVGID_4_">
									<use xlink:href="#SVGID_15_"  overflow="visible"/>
								</clipPath>
								<path clip-path="url(#SVGID_4_)" fill="#ED1C24" d="M91.827,8.039c-0.031,0.001-0.062,0.002-0.094,0.003
									c-0.188,0.007-0.376,0.021-0.565,0.042c-0.04,0.005-0.078,0.009-0.119,0.015c-0.244,0.032-0.487,0.077-0.731,0.135
									L12.684,26.664c-3.553,0.84-5.93,4.226-5.814,7.94c0.017,0.531,0.084,1.068,0.206,1.605l17.22,76.156
									c0.159,0.705,0.403,1.367,0.717,1.978c1.281,2.493,3.738,4.123,6.415,4.251c0.165,0.008,0.329,0.01,0.494,0.006
									c0.032-0.001,0.063-0.002,0.094-0.003c0.47-0.016,0.944-0.078,1.417-0.191l77.634-18.431
									c3.553-0.841,5.93-4.227,5.813-7.941c-0.016-0.53-0.083-1.067-0.205-1.605l-17.22-76.146
									c-0.835-3.707-3.997-6.24-7.462-6.246C91.937,8.037,91.882,8.038,91.827,8.039"/>
								<path clip-path="url(#SVGID_4_)" fill="#ED1C24" d="M91.733,8.042c0.031-0.001,0.062-0.002,0.094-0.003
									c0.055-0.001,0.11-0.002,0.165-0.002c3.465,0.005,6.627,2.538,7.462,6.246l17.22,76.146
									c0.122,0.538,0.189,1.075,0.205,1.605c0.116,3.714-2.261,7.1-5.813,7.941l-77.634,18.431
									c-0.473,0.113-0.947,0.175-1.417,0.191c-0.03,0.001-0.061,0.002-0.094,0.003c-0.165,0.003-0.329,0.002-0.494-0.006
									c-2.678-0.128-5.134-1.758-6.415-4.251c-0.313-0.611-0.558-1.273-0.717-1.978L7.075,36.209
									c-0.122-0.538-0.189-1.075-0.206-1.605c-0.115-3.713,2.262-7.1,5.814-7.94L90.317,8.233
									c0.244-0.058,0.487-0.102,0.731-0.135c0.04-0.005,0.08-0.01,0.119-0.015C91.357,8.062,91.546,8.049,91.733,8.042
									 M91.754,6.042c-0.505,0.011-1.014,0.065-1.523,0.165L12.086,24.751c-4.906,1.26-7.953,6.404-6.91,11.634l11.618,51.397
									l5.657,25.019c1.062,4.712,5.128,7.893,9.544,7.797c0.505-0.011,1.015-0.065,1.525-0.165l78.14-18.544
									c4.908-1.258,7.957-6.404,6.913-11.636l-11.618-51.396l-5.657-25.019C100.235,9.126,96.17,5.946,91.754,6.042"/>
							</g>
						</g>
					</g>
				</g>
			</g>
		</g>
	</g>
</g>
<g>
	<path fill="#FFFFFF" d="M50.598,110.774c0.645,0.404,1.27,1.048,1.874,1.935c0.604,0.888,0.894,1.553,0.894,3.083
		c0,0-18.282,4.293-19.657,4.626s-2.817,0.146-2.817,0.146v-4.348c0-1.53,0.302-2.739,0.906-3.627
		c0.605-0.886,1.228-1.53,1.874-1.935c0.321-0.242,0.584-0.502,0.786-0.786c0.2-0.282,0.342-0.705,0.423-1.27V76.196
		c0-0.886-0.443-1.612-1.33-2.176c-0.646-0.403-1.25-1.047-1.814-1.935c-0.564-0.886-0.846-2.014-0.846-3.385v-6.892h16.201
		c0.886,0,1.47,0.223,1.753,0.665c0.281,0.444,0.423,0.988,0.423,1.632v44.009c0,0.807,0.121,1.371,0.363,1.693
		C49.872,110.13,50.193,110.453,50.598,110.774z M42.135,52.74c-2.016,0-3.709-0.684-5.078-2.056
		c-1.372-1.37-2.056-3.062-2.056-5.078c0-1.934,0.684-3.606,2.056-5.017c1.369-1.41,3.062-2.116,5.078-2.116
		c1.935,0,3.606,0.707,5.017,2.116c1.409,1.411,2.115,3.083,2.115,5.017c0,2.016-0.706,3.708-2.115,5.078
		C45.741,52.056,44.069,52.74,42.135,52.74z"/>
	<path fill="#FFFFFF" d="M90.374,106.937V82.604c0-2.82-0.483-4.997-1.451-6.529c-0.967-1.53-2.861-2.297-5.683-2.297
		c-1.129,0-2.076,0.142-2.841,0.423c-0.767,0.283-1.391,0.626-1.874,1.028c-0.565,0.404-1.049,0.888-1.451,1.451v31.798
		c0,0.807,0.062,1.281,0.304,1.602l-9.21,2.152l-9.192,2.209l0.005-0.105c0,0-0.103-0.497,0.503-1.384
		c0.604-0.886,1.228-1.53,1.874-1.935c0.402-0.321,0.704-0.604,0.906-0.846c0.2-0.242,0.342-0.765,0.423-1.572V78.13
		c0-1.692-0.142-2.799-0.423-3.325c-0.283-0.523-0.625-0.907-1.027-1.148c-0.646-0.484-1.251-1.149-1.813-1.995
		c-0.566-0.846-0.847-1.995-0.847-3.446v-6.408h16.08c0.645,0,1.107,0.142,1.391,0.423c0.281,0.284,0.503,0.586,0.665,0.907
		c0.16,0.323,0.281,0.726,0.362,1.209c0.887-0.563,1.894-1.047,3.022-1.451c0.968-0.402,2.135-0.765,3.507-1.088
		c1.369-0.321,2.901-0.484,4.595-0.484c2.98,0,5.52,0.504,7.616,1.511c2.096,1.009,3.809,2.418,5.139,4.232
		c1.33,1.813,2.297,4.011,2.901,6.589c0.605,2.581,0.907,5.401,0.907,8.463v21.4C104.762,103.604,90.297,107.042,90.374,106.937z"/>
</g>
</svg>
