<?xml version="1.0" encoding="utf-8"?>
<!-- Generator: Adobe Illustrator 17.0.0, SVG Export Plug-In . SVG Version: 6.00 Build 0)  -->
<!DOCTYPE svg PUBLIC "-//W3C//DTD SVG 1.1//EN" "http://www.w3.org/Graphics/SVG/1.1/DTD/svg11.dtd">
<svg version="1.1" id="Layer_1" xmlns="http://www.w3.org/2000/svg" xmlns:xlink="http://www.w3.org/1999/xlink" x="0px" y="0px"
	 width="129px" height="129.5px" viewBox="0 0 129 129.5" enable-background="new 0 0 129 129.5" xml:space="preserve">
<g>
	<g>
		<g enable-background="new    ">
			<defs>
				<polygon id="SVGID_9_" enable-background="new    " points="9.451,122.847 7.114,6.044 123.301,3.531 125.638,120.334 				"/>
			</defs>
			<clipPath id="SVGID_2_">
				<use xlink:href="#SVGID_9_"  overflow="visible"/>
			</clipPath>
			<g clip-path="url(#SVGID_2_)">
				<g>
					<g>
						<g>
							<g>
								<defs>
									<polyline id="SVGID_11_" points="29.157,122.421 7.528,26.765 103.595,3.957 125.224,99.613 29.157,122.421 									"/>
								</defs>
								<clipPath id="SVGID_4_">
									<use xlink:href="#SVGID_11_"  overflow="visible"/>
								</clipPath>
								<path clip-path="url(#SVGID_4_)" fill="#ED1C24" d="M96.336,7.912c-0.188,0.004-0.376,0.016-0.565,0.035
									c-0.22,0.022-0.439,0.056-0.66,0.099c-0.095,0.019-0.191,0.039-0.287,0.062L17.181,26.538
									c-3.553,0.841-5.93,4.22-5.814,7.938c0.017,0.531,0.084,1.069,0.206,1.607l17.221,76.156
									c0.158,0.704,0.402,1.367,0.716,1.977c1.281,2.493,3.738,4.123,6.415,4.251c0.165,0.007,0.329,0.01,0.494,0.006
									c0.032-0.001,0.063-0.002,0.094-0.003c0.47-0.017,0.944-0.079,1.418-0.191l77.633-18.43
									c3.561-0.842,5.932-4.228,5.815-7.941c-0.017-0.531-0.084-1.068-0.207-1.605l-17.219-76.146
									c-0.835-3.714-3.988-6.241-7.45-6.247C96.445,7.911,96.391,7.911,96.336,7.912"/>
								<path clip-path="url(#SVGID_4_)" fill="#ED1C24" d="M95.77,7.947c0.19-0.019,0.378-0.031,0.565-0.035
									c0.055-0.001,0.109-0.001,0.165-0.001c3.462,0.005,6.615,2.532,7.45,6.247l17.219,76.146
									c0.123,0.537,0.19,1.074,0.207,1.605c0.117,3.713-2.254,7.099-5.815,7.941L37.93,118.28
									c-0.474,0.113-0.948,0.175-1.418,0.191c-0.03,0.001-0.062,0.002-0.094,0.003c-0.165,0.003-0.329,0.001-0.494-0.006
									c-2.678-0.128-5.134-1.758-6.415-4.251c-0.313-0.61-0.558-1.273-0.716-1.977L11.572,36.083
									c-0.122-0.539-0.189-1.077-0.206-1.607c-0.115-3.718,2.262-7.097,5.814-7.938L94.823,8.107
									c0.096-0.023,0.192-0.043,0.287-0.062C95.331,8.002,95.551,7.969,95.77,7.947 M96.26,5.913
									c-0.624,0.013-1.255,0.092-1.885,0.242L16.74,24.585c-4.978,1.175-8.097,6.346-7.079,11.611l17.358,76.771
									c1.163,4.544,5.158,7.597,9.479,7.504c0.619-0.014,1.245-0.091,1.87-0.239l77.635-18.431
									c5.002-1.188,8.124-6.387,7.079-11.66l-17.335-76.667C104.604,8.897,100.6,5.819,96.26,5.913"/>
							</g>
						</g>
					</g>
				</g>
			</g>
		</g>
	</g>
</g>
<g>
	<path fill="#FFFFFF" d="M72.286,69.626L10.312,40.25c0,0-1.187-4.75-0.812-5.812l60.214,27.423l30.599-55.486
		c0,0,3.5,1.75,4.625,4.375L72.286,69.626z"/>
</g>
<g>
	<polygon fill="#FFFFFF" points="27.25,114.5 25.167,108.25 52.896,57.017 56.603,58.983 	"/>
</g>
<g>
	<polygon fill="#FFFFFF" points="118.861,70.521 120.228,75.998 78.76,53.979 80.727,50.271 	"/>
</g>
</svg>
