<?xml version="1.0" encoding="utf-8"?>
<!-- Generator: Adobe Illustrator 17.0.0, SVG Export Plug-In . SVG Version: 6.00 Build 0)  -->
<!DOCTYPE svg PUBLIC "-//W3C//DTD SVG 1.1//EN" "http://www.w3.org/Graphics/SVG/1.1/DTD/svg11.dtd">
<svg version="1.1" id="Layer_1" xmlns="http://www.w3.org/2000/svg" xmlns:xlink="http://www.w3.org/1999/xlink" x="0px" y="0px"
	 width="129px" height="129.5px" viewBox="0 0 129 129.5" enable-background="new 0 0 129 129.5" xml:space="preserve">
<g>
	<g>
		<g enable-background="new    ">
			<defs>
				<polygon id="SVGID_1_" enable-background="new    " points="6.977,123.342 4.64,6.557 120.828,4.044 123.164,120.829 				"/>
			</defs>
			<clipPath id="SVGID_2_">
				<use xlink:href="#SVGID_1_"  overflow="visible"/>
			</clipPath>
			<g clip-path="url(#SVGID_2_)">
				<g>
					<g>
						<g>
							<g>
								<defs>
									<polyline id="SVGID_3_" points="26.683,122.916 5.055,27.269 101.122,4.471 122.749,100.117 26.683,122.916 									"/>
								</defs>
								<clipPath id="SVGID_4_">
									<use xlink:href="#SVGID_3_"  overflow="visible"/>
								</clipPath>
								<path clip-path="url(#SVGID_4_)" fill="#ED1C24" d="M93.863,8.417c-0.031,0-0.062,0.002-0.094,0.003
									c-0.219,0.008-0.439,0.025-0.66,0.053c-0.253,0.033-0.506,0.079-0.759,0.139L14.716,27.042
									c-3.561,0.841-5.933,4.22-5.815,7.932c0.016,0.53,0.084,1.067,0.206,1.605l17.221,76.156
									c0.03,0.133,0.062,0.264,0.099,0.394c0.139,0.503,0.321,0.983,0.542,1.436c1.182,2.424,3.458,4.062,5.996,4.358
									c0.325,0.038,0.653,0.054,0.984,0.047c0.032-0.001,0.063-0.002,0.094-0.004c0.471-0.016,0.946-0.078,1.422-0.191
									l77.634-18.431c3.553-0.841,5.93-4.22,5.814-7.932c-0.017-0.53-0.084-1.067-0.205-1.605l-17.221-76.164
									c-0.014-0.059-0.027-0.117-0.042-0.175c-0.072-0.291-0.158-0.573-0.258-0.848c-1.079-2.968-3.726-4.979-6.665-5.186
									C94.303,8.417,94.083,8.412,93.863,8.417"/>
								<path clip-path="url(#SVGID_4_)" fill="#ED1C24" d="M93.769,8.419c0.032-0.001,0.063-0.002,0.094-0.003
									c0.22-0.005,0.44,0,0.658,0.016c2.94,0.207,5.586,2.219,6.665,5.186c0.1,0.275,0.187,0.558,0.258,0.848
									c0.014,0.058,0.028,0.117,0.042,0.175l17.221,76.164c0.122,0.538,0.189,1.075,0.205,1.605
									c0.116,3.712-2.261,7.091-5.814,7.932l-77.634,18.431c-0.476,0.113-0.951,0.176-1.422,0.191
									c-0.031,0.002-0.062,0.003-0.094,0.004c-0.331,0.007-0.659-0.009-0.984-0.047c-2.538-0.295-4.814-1.934-5.996-4.358
									c-0.22-0.453-0.402-0.933-0.542-1.436c-0.036-0.13-0.069-0.261-0.099-0.394L9.107,36.579
									c-0.122-0.538-0.19-1.075-0.206-1.605c-0.118-3.712,2.254-7.091,5.815-7.932L92.349,8.611
									c0.253-0.06,0.506-0.106,0.759-0.139C93.329,8.444,93.549,8.427,93.769,8.419 M93.78,6.411
									c-0.517,0.011-1.038,0.068-1.561,0.172l-77.97,18.504c-4.977,1.198-8.095,6.385-7.055,11.646l17.363,76.788
									c1.178,4.512,5.154,7.541,9.46,7.448c0.624-0.013,1.255-0.092,1.886-0.242l77.634-18.43
									c4.983-1.178,8.114-6.375,7.072-11.646l-17.363-76.784C102.068,9.35,98.085,6.317,93.78,6.411"/>
							</g>
						</g>
					</g>
				</g>
			</g>
		</g>
	</g>
</g>
<g>
	<path fill="#FFFFFF" d="M100.495,27.199c-2.801,2.274-5.964,4.154-9.438,5.555c3.069-3.189,4.943-7.429,5.146-11.933
		c-2.879,2.963-6.278,5.468-10.106,7.359c-4.171-2.573-9.368-3.48-14.474-2.098c-9.803,2.654-15.599,12.753-12.946,22.555
		c0.377,1.391,0.9,2.703,1.555,3.921c-14.953,3.253-29.945-0.273-41.607-8.642c-0.818,3.035-0.868,6.321,0.012,9.574
		c1.667,6.158,6.272,10.743,11.896,12.637c-2.935,0.695-5.888,0.638-8.641-0.044c0.018,0.075,0.038,0.149,0.059,0.224
		c2.328,8.6,10.389,14.118,18.951,13.551c-1.38,0.809-2.889,1.45-4.508,1.889c-1.144,0.31-2.286,0.499-3.426,0.586
		c4.168,6.44,12.113,9.798,19.919,7.838c-4.786,6.406-11.671,11.315-19.988,13.567c-1.433,0.388-2.869,0.686-4.302,0.898
		c9.219,2.91,19.345,3.323,29.369,0.609c32.649-8.839,43.182-40.72,36.832-64.176c-0.208-0.77-0.433-1.53-0.674-2.282
		C96.917,35.344,99.079,31.403,100.495,27.199L100.495,27.199z"/>
</g>
</svg>
